<svg id="Capa_1" enable-background="new 0 0 511.993 511.993" height="512" viewBox="0 0 511.993 511.993" width="512" xmlns="http://www.w3.org/2000/svg"><g><path d="m98.252 466.783 10.534 3.039c85.908 24.785 178.513 5.635 247.545-51.191 7.551-6.216 7.889-17.663.719-24.314l-.326-.302c-7.313-6.783-18.139-7.876-26.583-2.74l-34.633 21.068c-35.061 21.328-77.792 25.958-116.608 12.633-16.021-5.5-19.049-26.846-5.191-36.584l36.019-25.312c6.793-4.773 8.539-14.093 3.936-21.002-3.496-5.247-9.853-7.812-16.011-6.461l-99.401 21.807-16.397 17.706v75.145z" fill="#ffddce"/><path d="m208.866 340.649-36.019 25.312c-9.983 7.015-11.201 20.053-5.114 28.852 1.433-2.421 3.414-4.621 5.977-6.422l36.019-25.311c6.793-4.773 8.539-14.093 3.936-21.002-.793-1.19-1.738-2.233-2.79-3.133-.614.612-1.276 1.189-2.009 1.704z" fill="#ffcbbe"/><path d="m357.22 394.494c-.538.599-1.109 1.177-1.752 1.707-69.032 56.826-161.636 75.975-247.545 51.19l-10.534-3.039-15.534-15.639v21.562l16.397 16.508 10.534 3.039c85.908 24.785 178.513 5.635 247.545-51.191 7.487-6.163 7.873-17.463.889-24.137z" fill="#ffcbbe"/><path d="m13.405 486.183h75.839c4.976 0 9.009-4.033 9.009-9.009v-127.949c0-4.976-4.033-9.009-9.009-9.009h-75.839c-3.261 0-5.904 2.643-5.904 5.904v134.158c-.001 3.262 2.643 5.905 5.904 5.905z" fill="#b3e59f"/><path d="m98.253 477.174v-127.949c0-4.976-4.034-9.009-9.009-9.009h-10.077v115.233c0 4.976-4.034 9.009-9.009 9.009h-62.658v15.82c0 3.261 2.643 5.904 5.904 5.904h75.839c4.976.001 9.01-4.032 9.01-9.008z" fill="#95d6a4"/><path d="m413.74 45.211-10.534-3.039c-85.908-24.785-178.513-5.635-247.545 51.191-7.551 6.216-7.889 17.663-.719 24.314l.326.302c7.313 6.783 18.139 7.876 26.583 2.74l34.633-21.068c35.061-21.328 77.792-25.958 116.608-12.633 16.021 5.5 19.049 26.846 5.191 36.584l-36.019 25.312c-6.793 4.773-8.539 14.093-3.936 21.002 3.496 5.247 9.853 7.812 16.011 6.461l99.401-21.807 16.397-17.706v-75.146z" fill="#ffddce"/><path d="m403.206 42.171c-3.799-1.096-7.612-2.102-11.435-3.027v120.244l21.969-4.82 16.397-17.706v-75.144l-16.397-16.508z" fill="#ffcbbe"/><path d="m498.588 25.81h-75.839c-4.976 0-9.009 4.033-9.009 9.009v127.949c0 4.976 4.033 9.009 9.009 9.009h75.839c3.261 0 5.904-2.644 5.904-5.904v-134.158c.001-3.261-2.643-5.905-5.904-5.905z" fill="#b3e59f"/><path d="m498.588 25.81h-75.839c-4.975 0-9.009 4.033-9.009 9.009v11.89h63.506c3.261 0 5.905 2.644 5.905 5.904v119.163h15.437c3.261 0 5.904-2.643 5.904-5.904v-134.157c.001-3.261-2.643-5.905-5.904-5.905z" fill="#95d6a4"/><g><path d="m243.886 318.405c-6.631 0-12.989-2.634-17.678-7.322l-40.78-40.781c-9.763-9.764-9.763-25.593 0-35.355s25.593-9.762 35.355 0l23.103 23.104 47.323-47.323c9.764-9.764 25.592-9.764 35.355 0 9.763 9.763 9.763 25.593 0 35.355l-65.001 65.001c-4.688 4.687-11.047 7.321-17.677 7.321z" fill="#b3e59f"/></g><g><path d="m326.565 210.726c-7.859-7.859-19.646-9.387-29.039-4.594 2.276 1.162 4.413 2.689 6.317 4.594 9.763 9.763 9.763 25.593 0 35.355l-65.001 65.001c-1.869 1.869-4.006 3.405-6.317 4.584 3.487 1.779 7.373 2.738 11.361 2.738 6.63 0 12.989-2.634 17.678-7.322l65.001-65.001c9.763-9.762 9.763-25.592 0-35.355z" fill="#95d6a4"/></g><g><path d="m326.244 384.868-34.633 21.067c-33.262 20.232-73.455 24.585-110.275 11.947-4.803-1.648-8.097-5.635-8.81-10.662-.714-5.028 1.341-9.773 5.496-12.692l36.019-25.312c10.204-7.171 12.78-20.918 5.865-31.298-5.249-7.875-14.606-11.654-23.86-9.628l-90.349 19.822c-.577-8.583-7.725-15.396-16.453-15.396h-75.84c-7.391 0-13.404 6.013-13.404 13.405v68.149c0 4.143 3.357 7.5 7.5 7.5s7.5-3.357 7.5-7.5v-66.554h74.243c.832 0 1.51.677 1.51 1.509v127.949c0 .832-.678 1.509-1.51 1.509h-74.243v-34.426c0-4.143-3.357-7.5-7.5-7.5s-7.5 3.357-7.5 7.5v36.021c0 7.392 6.013 13.404 13.404 13.404h75.839c9.104 0 16.51-7.406 16.51-16.509v-.422l.954.275c25.443 7.341 51.449 10.936 77.279 10.936 63.83-.001 126.585-21.949 177.111-63.542 5.271-4.338 8.408-10.739 8.61-17.563.614-20.784-25.057-33.189-43.463-21.989zm25.32 27.973c-47.811 39.356-107.179 60.124-167.579 60.121-42.657-.002-75.875-11.303-78.232-11.821v-97.684l93.507-20.515c3.165-.697 6.368.599 8.164 3.293 2.365 3.551 1.483 8.254-2.008 10.707l-36.019 25.312c-8.729 6.136-13.222 16.509-11.723 27.072 1.499 10.564 8.699 19.278 18.791 22.743 15.459 5.307 31.444 7.926 47.356 7.926 26.341-.002 52.468-7.184 75.584-21.246l34.633-21.066c5.551-3.376 12.783-2.624 17.583 1.829.1.093.429.398.328.305 3.82 3.542 3.695 9.663-.385 13.024z"/><path d="m65.739 441.528v-12.265c0-4.143-3.357-7.5-7.5-7.5s-7.5 3.357-7.5 7.5v12.265c0 4.143 3.357 7.5 7.5 7.5s7.5-3.358 7.5-7.5z"/><path d="m498.588 18.31h-75.839c-9.103 0-16.509 7.406-16.509 16.509v.422l-.955-.275c-14.65-4.228-29.786-7.266-44.985-9.031-4.112-.47-7.836 2.472-8.315 6.585-.478 4.114 2.471 7.837 6.585 8.315 25.485 2.96 45.516 9.478 47.671 10.019v97.683l-93.507 20.515c-3.167.693-6.368-.6-8.164-3.294-2.366-3.55-1.484-8.253 2.008-10.706l36.019-25.312c8.729-6.136 13.222-16.509 11.723-27.073-1.5-10.563-8.7-19.277-18.791-22.741-41.053-14.093-85.861-9.238-122.94 13.319l-34.634 21.067c-8.949 5.442-20.916-.622-20.675-8.734.075-2.532 1.193-4.814 3.149-6.425 47.097-38.768 106.604-60.074 167.705-60.074.425 0 .854.001 1.278.003h.037c4.124 0 7.479-3.334 7.499-7.464.021-4.142-3.321-7.516-7.464-7.536-65.04-.348-128.466 22.231-178.589 63.491-5.27 4.338-8.408 10.738-8.609 17.562-.608 20.522 24.738 33.383 43.464 21.992l34.633-21.067c33.262-20.232 73.454-24.586 110.275-11.947 4.803 1.648 8.097 5.635 8.81 10.662.714 5.028-1.341 9.773-5.496 12.692l-36.018 25.312c-10.206 7.171-12.783 20.918-5.866 31.297 4.307 6.465 11.387 10.169 18.898 10.169 1.642 0 3.304-.177 4.962-.54l90.349-19.822c.577 8.583 7.725 15.396 16.452 15.396h75.839c7.392 0 13.405-6.013 13.405-13.404v-134.161c0-7.391-6.014-13.404-13.405-13.404zm-1.595 145.967h-74.244c-.832 0-1.509-.677-1.509-1.509v-127.949c0-.832.677-1.509 1.509-1.509h74.244z"/><path d="m453.753 90.23c4.143 0 7.5-3.357 7.5-7.5v-12.265c0-4.143-3.357-7.5-7.5-7.5s-7.5 3.357-7.5 7.5v12.265c0 4.143 3.357 7.5 7.5 7.5z"/><path d="m298.724 263.316c-2.93 2.929-2.93 7.678-.001 10.606s7.678 2.93 10.606.001l22.54-22.539c12.67-12.671 12.67-33.29 0-45.962-6.139-6.139-14.301-9.52-22.981-9.52s-16.843 3.381-22.981 9.52l-42.021 42.021-17.799-17.801c-12.672-12.67-33.291-12.67-45.961 0-12.701 12.699-12.706 33.259-.001 45.962l40.78 40.782c6.14 6.139 14.301 9.519 22.98 9.519 8.683 0 16.844-3.381 22.981-9.519l21.259-21.259c2.929-2.93 2.929-7.678 0-10.607-2.93-2.928-7.678-2.928-10.607 0l-21.259 21.26c-3.305 3.305-7.699 5.125-12.374 5.125-4.674 0-9.068-1.82-12.374-5.125l-40.779-40.782c-6.842-6.84-6.841-17.909 0-24.748 6.821-6.824 17.925-6.823 24.748-.001l23.102 23.104c1.406 1.407 3.314 2.197 5.304 2.197s3.896-.79 5.304-2.196l47.324-47.323c6.823-6.823 17.925-6.824 24.748-.001 6.823 6.824 6.823 17.927.001 24.749z"/></g></g></svg>