<?xml version="1.0" encoding="iso-8859-1"?>
<!-- Generator: Adobe Illustrator 21.0.0, SVG Export Plug-In . SVG Version: 6.00 Build 0)  -->
<svg xmlns="http://www.w3.org/2000/svg" xmlns:xlink="http://www.w3.org/1999/xlink" version="1.1" id="Capa_1" x="0px" y="0px" viewBox="0 0 512 512" style="enable-background:new 0 0 512 512;" xml:space="preserve" width="512" height="512">
<g>
	<rect x="274.197" y="207.622" style="fill:#EBEEF2;" width="47.498" height="257.232"/>
	<path style="fill:#C9CDD3;" d="M274.197,259.729c7.59,1.957,15.548,2.998,23.749,2.998s16.159-1.041,23.749-2.998v-52.108h-47.499   V259.729z"/>
	<circle style="fill:#F4D34C;" cx="297.946" cy="140.869" r="94.857"/>
	<path style="fill:#D6A10D;" d="M350.994,62.221c12.948,16.217,20.688,36.774,20.688,59.139c0,52.388-42.469,94.857-94.857,94.857   c-19.651,0-37.906-5.976-53.048-16.209c17.381,21.77,44.146,35.719,74.17,35.719c52.388,0,94.857-42.469,94.857-94.857   C392.804,108.132,376.22,79.268,350.994,62.221z"/>
	<path style="fill:#F6BB93;" d="M370.237,392.564c0-9.931-8.051-17.982-17.982-17.982c10.22,0,18.448-8.525,17.962-18.851   c-0.455-9.672-8.787-17.113-18.469-17.113h-89.149c-2.969,0-4.912-3.158-3.522-5.782c9.31-17.568,15.243-37.825,15.395-57.399   c0.094-12.097-9.376-22.405-21.471-22.6c-12.223-0.197-22.193,9.653-22.193,21.831c0,13.998-5.129,30.073-14.07,44.103   c-5.635,8.843-11.27,14.475-15.266,17.525c-1.961,1.497-4.346,2.32-6.813,2.32h-31.863v140.409h73.375   c42.054,13.355,79.872,10.751,119.496,2.774c8.11-1.633,14.343-8.542,14.566-16.812c0.273-10.158-7.879-18.478-17.976-18.478   c9.931,0,17.982-8.051,17.982-17.982s-8.051-17.982-17.982-17.982C362.186,410.546,370.237,402.495,370.237,392.564z"/>
	<path style="fill:#E49775;" d="M370.237,428.528c0-9.931-8.051-17.982-17.982-17.982c9.931,0,17.982-8.051,17.982-17.982   c0-9.931-8.051-17.982-17.982-17.982c10.136,0,18.313-8.386,17.972-18.598c-0.326-9.768-8.67-17.366-18.443-17.366h-30.852   c9.683,0,18.014,7.441,18.469,17.113c0.343,7.278-3.644,13.661-9.605,16.796c-1.659,0.872-1.629,3.251,0.029,4.126   c5.707,3.014,9.597,9.008,9.597,15.911c0,6.904-3.89,12.898-9.598,15.912c-1.671,0.882-1.671,3.258,0,4.14   c5.708,3.014,9.598,9.008,9.598,15.912c0,6.901-3.888,12.895-9.593,15.909c-1.646,0.87-1.705,3.252-0.056,4.117   c5.872,3.076,9.833,9.302,9.642,16.434c-0.222,8.265-6.446,15.177-14.552,16.81c-14.455,2.911-28.669,5.106-42.937,6.073   c24.859,1.809,48.944-1.079,73.736-6.07c8.111-1.633,14.345-8.542,14.567-16.812c0.273-10.158-7.879-18.478-17.975-18.478   C362.186,446.51,370.237,438.459,370.237,428.528z"/>
	<path style="fill:#EBEEF2;" d="M131.979,334.425v155.136h39.958c5.54,0,10.031-4.491,10.031-10.031V344.456   c0-5.54-4.491-10.031-10.031-10.031H131.979z"/>
	<path style="fill:#C9CDD3;" d="M171.937,465.151h-39.958v24.41h39.958c5.54,0,10.031-4.491,10.031-10.031v-24.41   C181.967,460.661,177.477,465.151,171.937,465.151z"/>
	<path style="fill:#85B4E1;" d="M131.979,330.609v162.768c0,6.143-4.98,11.123-11.123,11.123h-48.25V319.486h48.25   C126.999,319.486,131.979,324.466,131.979,330.609z"/>
	<path style="fill:#3F80C1;" d="M120.856,480.09h-48.25v24.41h48.25c6.143,0,11.123-4.98,11.123-11.123v-24.41   C131.979,475.111,126.999,480.09,120.856,480.09z"/>
	<g>
		<path d="M400.071,54.323c1.919,0,3.839-0.732,5.304-2.197l17.061-17.061c2.929-2.929,2.929-7.678,0-10.606    c-2.93-2.929-7.678-2.929-10.607,0L394.768,41.52c-2.929,2.929-2.929,7.678,0,10.606    C396.232,53.591,398.152,54.323,400.071,54.323z"/>
		<path d="M370.237,41.664c4.143,0,7.5-3.358,7.5-7.5V7.5c0-4.142-3.357-7.5-7.5-7.5s-7.5,3.358-7.5,7.5v26.664    C362.737,38.306,366.095,41.664,370.237,41.664z"/>
		<path d="M439.395,69.157H412.73c-4.143,0-7.5,3.358-7.5,7.5s3.357,7.5,7.5,7.5h26.664c4.143,0,7.5-3.358,7.5-7.5    S443.537,69.157,439.395,69.157z"/>
		<path d="M400.304,140.87c0-56.44-45.917-102.357-102.357-102.357S195.589,84.43,195.589,140.87    c0,45.548,29.905,84.242,71.111,97.481v10.663c-4.045-2.271-8.667-3.595-13.578-3.672c-0.164-0.002-0.329-0.004-0.494-0.004    c-7.742,0-15.025,2.979-20.556,8.419c-5.65,5.559-8.763,12.986-8.763,20.914c0,12.604-4.7,27.209-12.892,40.066    c-5.956,9.334-11.422,14.019-13.487,15.594c-1.798,1.366-2.78,0.555-13.626,0.791c-3.063-2.615-7.034-4.195-11.368-4.195h-32.824    c-1.715-8.51-9.249-14.939-18.257-14.939h-48.25c-4.143,0-7.5,3.358-7.5,7.5v30.348c0,4.142,3.357,7.5,7.5,7.5s7.5-3.358,7.5-7.5    v-22.848h40.75c1.998,0,3.623,1.625,3.623,3.623v162.768c0,1.998-1.625,3.623-3.623,3.623h-40.75V379.833    c0-4.142-3.357-7.5-7.5-7.5s-7.5,3.358-7.5,7.5V504.5c0,4.142,3.357,7.5,7.5,7.5h48.25c9.008,0,16.542-6.429,18.257-14.939h32.824    c7.18,0,13.365-4.338,16.073-10.531h47.009c16.612,5.175,33.11,8.146,50.397,9.08c0.138,0.007,0.274,0.011,0.411,0.011    c3.956,0,7.267-3.098,7.482-7.096c0.223-4.136-2.949-7.67-7.085-7.894c-16.391-0.885-32.021-3.747-47.786-8.75    c-0.733-0.233-1.499-0.352-2.269-0.352h-46.702V346.12h5.192c4.053,0,8.084-1.367,11.357-3.856    c3.366-2.567,10.057-8.508,17.048-19.464c9.688-15.205,15.244-32.748,15.244-48.13c0-3.874,1.521-7.504,4.282-10.221    c2.759-2.714,6.443-4.191,10.29-4.11c6.846,0.108,12.537,5.281,13.818,12.042v9.403c-1.176,15.596-6.139,32.242-14.246,47.542    c-1.891,3.565-1.775,7.764,0.311,11.23c2.096,3.484,5.772,5.564,9.835,5.564h89.15c5.792,0,10.717,4.471,10.978,9.958    c0.136,2.907-0.89,5.661-2.888,7.753c-1.999,2.094-4.695,3.248-7.59,3.248c-4.143,0-7.5,3.358-7.5,7.5s3.357,7.5,7.5,7.5    c5.784,0,10.49,4.701,10.49,10.48c0,5.784-4.706,10.49-10.49,10.49c-4.143,0-7.5,3.358-7.5,7.5s3.357,7.5,7.5,7.5    c5.784,0,10.49,4.701,10.49,10.48s-4.706,10.48-10.49,10.48c-4.143,0-7.5,3.358-7.5,7.5s3.357,7.5,7.5,7.5    c2.854,0,5.522,1.126,7.513,3.17c1.991,2.045,3.046,4.748,2.97,7.611c-0.123,4.624-3.719,8.685-8.556,9.657    c-14.39,2.904-27.157,4.776-39.034,5.726c-4.129,0.33-7.209,3.945-6.879,8.074c0.314,3.926,3.597,6.903,7.469,6.903    c0.2,0,0.402-0.008,0.605-0.024c12.478-0.998,25.825-2.952,40.8-5.973c11.623-2.336,20.282-12.414,20.589-23.963    c0.186-6.944-2.378-13.505-7.217-18.474c-0.069-0.071-0.139-0.142-0.209-0.212c4.595-4.611,7.439-10.967,7.439-17.974    c0-7.011-2.848-13.37-7.447-17.981c4.6-4.613,7.447-10.975,7.447-17.988c0-7.007-2.844-13.362-7.438-17.973    c0.131-0.131,0.26-0.264,0.389-0.398c4.855-5.086,7.349-11.766,7.021-18.815c-0.646-13.6-12.05-24.253-25.961-24.253H329.2    v-92.772C370.403,225.107,400.304,186.415,400.304,140.87z M174.468,479.53c0,1.396-1.136,2.531-2.531,2.531h-32.458V341.925    h32.458c1.396,0,2.531,1.135,2.531,2.531V479.53z M210.589,140.87c0-48.169,39.188-87.357,87.357-87.357    s87.357,39.188,87.357,87.357s-39.188,87.357-87.357,87.357S210.589,189.039,210.589,140.87z M314.2,331.12h-32.5    c0-6.001,0-83.175,0-89.182c5.292,0.848,10.719,1.288,16.246,1.288c5.53,0,10.959-0.441,16.254-1.289V331.12z"/>
		<path d="M269.16,118.583v-6.286c0-4.142-3.357-7.5-7.5-7.5s-7.5,3.358-7.5,7.5v6.286c0,4.142,3.357,7.5,7.5,7.5    S269.16,122.726,269.16,118.583z"/>
		<path d="M334.232,126.083c4.143,0,7.5-3.358,7.5-7.5v-6.286c0-4.142-3.357-7.5-7.5-7.5s-7.5,3.358-7.5,7.5v6.286    C326.732,122.726,330.09,126.083,334.232,126.083z"/>
		<path d="M338.903,159.382c0-4.142-3.357-7.5-7.5-7.5s-7.5,3.358-7.5,7.5c0,14.313-11.645,25.957-25.957,25.957    s-25.957-11.644-25.957-25.957c0-4.142-3.357-7.5-7.5-7.5s-7.5,3.358-7.5,7.5c0,22.584,18.373,40.957,40.957,40.957    S338.903,181.966,338.903,159.382z"/>
	</g>
</g>















</svg>
