<svg id="Capa_1" enable-background="new 0 0 512 512" height="512" viewBox="0 0 512 512" width="512" xmlns="http://www.w3.org/2000/svg"><g><g clip-rule="evenodd" fill-rule="evenodd"><path d="m195.495 72.539c0-35.916-29.111-65.027-65.056-65.027-35.914 0-65.028 29.112-65.028 65.027 0 35.944 29.114 65.056 65.028 65.056z" fill="#f16f82"/><path d="m171.231 72.539h24.264c0-35.916-29.111-65.027-65.056-65.027-4.139 0-8.192.396-12.133 1.134 30.134 5.668 52.925 32.116 52.925 63.893z" fill="#dd636e"/><path d="m138.207 181.589h151.797c4.28 0 7.769-3.515 7.769-7.767v-93.516c0-4.252-3.488-7.767-7.769-7.767h-151.797c-4.281 0-7.768 3.515-7.768 7.767v93.517c0 4.252 3.487 7.766 7.768 7.766z" fill="#ddeafb"/><path d="m265.738 181.589h24.266c4.28 0 7.769-3.515 7.769-7.767v-93.516c0-4.252-3.488-7.767-7.769-7.767h-24.266c4.281 0 7.768 3.515 7.768 7.767v93.517c0 4.252-3.487 7.766-7.768 7.766z" fill="#cbe2ff"/><path d="m328.186 255.036h74.468c4.848-.028 7.738 2.211 7.768 7.824v87.309c0 32.513-26.73 59.216-59.218 59.216h-23.018v33.988h23.018c51.251 0 93.178-41.953 93.178-93.204v-95.132c0-18.681-15.28-33.959-33.96-33.959h-82.235v33.958z" fill="#ddeafb"/><path d="m328.186 443.344v.028h23.018c51.251 0 93.178-41.953 93.178-93.204v-95.132c0-18.681-15.28-33.959-33.96-33.959h-24.293c18.709 0 33.986 15.279 33.986 33.959v95.132c0 50.826-41.244 92.496-91.929 93.176z" fill="#cbe2ff"/><path d="m130.439 159.904h167.333c19.389 0 35.262 15.874 35.262 35.292v274.029c0 19.417-15.873 35.292-35.262 35.292h-167.333c-19.389 0-35.264-15.875-35.264-35.292v-274.029c.001-19.417 15.876-35.292 35.264-35.292z" fill="#fed9a4"/><path d="m273.506 159.904h24.267c19.389 0 35.262 15.874 35.262 35.292v274.029c0 19.417-15.873 35.292-35.262 35.292h-24.267c19.389 0 35.265-15.875 35.265-35.292v-274.029c-.001-19.417-15.877-35.292-35.265-35.292z" fill="#f1cb86"/><path d="m129.277 356.093 36.257-16.328c5.072-2.267 11.082 0 13.379 5.074l16.328 36.255c2.268 5.075 0 11.112-5.074 13.38l-36.256 16.328c-5.074 2.296-11.085 0-13.38-5.074l-16.328-36.256c-2.297-5.074 0-11.083 5.074-13.379z" fill="#fff1e2"/><path d="m295.362 241.061-29.595-13.323c-4.139-1.871-9.07 0-10.941 4.139l-13.324 29.594c-1.869 4.167 0 9.071 4.139 10.942l29.594 13.323c4.168 1.871 9.072 0 10.943-4.139l13.323-29.594c1.871-4.138 0-9.071-4.139-10.942z" fill="#fff1e2"/><path d="m278.211 342.089c29.228 24.265 35.888 67.238 14.287 99.469-21.629 32.258-63.922 42.322-97.513 24.548-5.67-3.033-6.123-4.933-2.324-10.46l74.978-111.772c3.542-4.846 5.384-6.065 10.572-1.785z" fill="#e7a52e"/><path d="m255.392 362.103c20.807 13.946 26.361 42.123 12.416 62.901-13.947 20.807-42.123 26.362-62.901 12.416z" fill="#ecbe6b"/><path d="m143.621 300.76c19.446 11.226 44.505 4.592 60.067-22.366 14.797-25.597 15.278-55.617 3.967-81.129-2.154-4.904-1.416-4.28-6.859-3.657-27.58 3.062-53.148 18.454-67.833 43.938-15.592 26.986-8.787 51.988 10.658 63.214z" fill="#b3e59f"/><g fill="#fdb343"><path d="m223.332 343.11c9.355 0 16.98-7.654 16.98-17.008 0-9.355-7.625-16.98-16.98-16.98s-16.98 7.626-16.98 16.98 7.625 17.008 16.98 17.008z"/><path d="m140.558 474.044c9.356 0 16.981-7.625 16.981-16.979 0-9.355-7.625-16.98-16.981-16.98-9.354 0-16.979 7.625-16.979 16.98.001 9.353 7.626 16.979 16.979 16.979z"/></g></g><path d="m256.81 426.648-15.818-10.602 3.686 18.681c4.451-1.843 8.587-4.564 12.132-8.079zm-116.252 5.924c6.747 0 12.87 2.75 17.321 7.172 4.422 4.45 7.172 10.545 7.172 17.32s-2.75 12.897-7.172 17.32c-4.451 4.422-10.574 7.171-17.321 7.171-6.773 0-12.896-2.749-17.318-7.171s-7.172-10.545-7.172-17.32c0-6.747 2.75-12.87 7.172-17.32 4.422-4.422 10.545-7.172 17.318-7.172zm6.72 17.774c-1.729-1.701-4.11-2.778-6.72-2.778-2.635 0-4.988 1.077-6.717 2.778-1.701 1.729-2.779 4.11-2.779 6.719 0 2.608 1.078 4.989 2.779 6.718 1.729 1.7 4.082 2.777 6.717 2.777 2.609 0 4.99-1.077 6.72-2.777 1.701-1.73 2.777-4.11 2.777-6.718 0-2.609-1.076-4.99-2.777-6.719zm76.054-148.736c6.775 0 12.898 2.75 17.32 7.171 4.422 4.451 7.172 10.574 7.172 17.321 0 6.774-2.75 12.897-7.172 17.319s-10.545 7.172-17.32 7.172c-6.747 0-12.87-2.75-17.319-7.172-4.422-4.422-7.172-10.545-7.172-17.319 0-6.747 2.75-12.87 7.172-17.321 4.449-4.422 10.572-7.171 17.319-7.171zm6.719 17.802c-1.729-1.729-4.082-2.778-6.719-2.778-2.607 0-4.989 1.049-6.718 2.778-1.701 1.701-2.779 4.082-2.779 6.69 0 2.636 1.078 4.989 2.779 6.718 1.728 1.701 4.11 2.778 6.718 2.778 2.637 0 4.99-1.077 6.719-2.778 1.701-1.729 2.777-4.082 2.777-6.718 0-2.608-1.076-4.989-2.777-6.69zm-107.096-284.12c0-4.139 3.346-7.512 7.484-7.512 4.139 0 7.512 3.373 7.512 7.512v19.162l13.55-13.549c2.92-2.92 7.654-2.92 10.602 0 2.92 2.919 2.92 7.682 0 10.602l-13.549 13.55h38.947c-1.672-12.898-7.625-24.463-16.355-33.194-10.432-10.432-24.804-16.867-40.706-16.867-13.182 0-25.313 4.422-35.008 11.849-9.893 7.597-17.264 18.369-20.58 30.785-1.076 3.997-5.188 6.378-9.185 5.301-3.996-1.049-6.379-5.159-5.301-9.156 4.195-15.647 13.493-29.225 25.995-38.807 12.217-9.384 27.524-14.968 44.078-14.968 20.042 0 38.184 8.135 51.308 21.26 11.453 11.452 19.105 26.759 20.863 43.795h95.162c4.137 0 7.512 3.345 7.512 7.483v80.533c8.758 1.56 16.639 5.84 22.705 11.906 7.738 7.739 12.557 18.454 12.557 30.217v18.369h69.876c11.395 0 21.77 4.677 29.281 12.189 7.513 7.512 12.19 17.887 12.19 29.282v95.132c0 27.694-11.34 52.867-29.567 71.122-18.254 18.256-43.426 29.566-71.122 29.566h-10.658v18.369c0 11.764-4.818 22.479-12.557 30.218-7.738 7.769-18.453 12.559-30.217 12.559h-167.333c-11.764 0-22.451-4.79-30.217-12.557-7.738-7.739-12.559-18.454-12.559-30.218v-120.02c0-4.139 3.373-7.512 7.512-7.512s7.484 3.373 7.484 7.512v120.021c0 7.625 3.146 14.57 8.164 19.616 5.045 5.046 11.99 8.164 19.615 8.164h167.333c7.625 0 14.568-3.118 19.615-8.164 5.045-5.046 8.164-11.991 8.164-19.616v-25.853-33.988-154.349-33.959-25.881c0-7.625-3.119-14.57-8.164-19.616-5.047-5.045-11.99-8.164-19.615-8.164h-167.332c-7.625 0-14.57 3.118-19.615 8.164-5.018 5.045-8.164 11.991-8.164 19.616v120.021c0 4.138-3.346 7.512-7.484 7.512s-7.512-3.373-7.512-7.512v-120.021c0-11.764 4.82-22.479 12.559-30.217 6.066-6.066 13.945-10.347 22.732-11.906v-8.362c-13.689-1.417-26.248-6.633-36.594-14.57-12.502-9.582-21.8-23.159-25.995-38.807-1.078-3.997 1.305-8.107 5.301-9.185 3.996-1.049 8.108 1.304 9.185 5.301 3.316 12.445 10.688 23.188 20.58 30.785 7.824 6.009 17.234 10.035 27.523 11.367v-38.95l-13.549 13.55c-2.92 2.92-7.682 2.92-10.602 0-2.947-2.919-2.947-7.682 0-10.602l13.521-13.55h-19.134c-4.139 0-7.512-3.373-7.512-7.512s3.373-7.483 7.512-7.483h19.135l-13.521-13.55c-2.947-2.92-2.947-7.682 0-10.602 2.92-2.92 7.682-2.92 10.602 0l13.549 13.549v-19.16zm146.695 87.988c4.139 0 7.512 3.373 7.512 7.512s-3.373 7.512-7.512 7.512h-111.091c-4.139 0-7.512-3.373-7.512-7.512s3.373-7.512 7.512-7.512zm0-29.112c4.139 0 7.512 3.373 7.512 7.512 0 4.138-3.373 7.483-7.512 7.483h-111.091c-4.139 0-7.512-3.345-7.512-7.483 0-4.139 3.373-7.512 7.512-7.512zm133.26 240.806c0-4.139 3.373-7.512 7.512-7.512s7.482 3.373 7.482 7.512v15.194c0 18.312-7.512 35.008-19.615 47.112-12.104 12.075-28.772 19.616-47.085 19.616h-10.658v18.964h10.658c23.558 0 44.958-9.638 60.493-25.172 15.533-15.534 25.199-36.964 25.199-60.52v-95.132c0-7.256-3.004-13.89-7.795-18.681-4.791-4.819-11.424-7.795-18.68-7.795h-69.876v18.993h69.79c4.168 0 7.568 3.402 7.568 7.54v45.893c0 4.139-3.344 7.512-7.482 7.512-4.139 0-7.512-3.373-7.512-7.512v-38.438h-62.364v139.325h10.658c14.175 0 27.101-5.811 36.483-15.222 9.383-9.383 15.223-22.309 15.223-36.482v-15.195zm-112.652-182.554v-72.37h-152.307v72.37zm-130.706 47.481c13.834-8.419 29.594-13.266 45.752-14.202 2.977-.142 5.84 1.531 7.143 4.195 7.259 14.486 10.915 30.53 10.519 46.63-.455 19.304-7.003 39.431-18.937 54.738-6.918 8.872-15.762 16.044-26.533 19.729-12.699 4.309-26.021 2.948-37.616-3.771-12.019-6.917-19.984-18.284-22.309-32.061-2.098-12.415.453-26.702 8.9-41.33 8.05-13.943 19.275-25.508 33.081-33.928zm-9.157 26.533 8.732 32.542 9.92-17.206-6.889-25.654c-4.194 3.033-8.134 6.491-11.763 10.318zm21.658 39.998 32.514-8.703c1.529-5.074 2.551-10.205 3.088-15.364l-25.682 6.888zm24.774 8.873-35.375 9.467-7.201 12.473c5.982 1.757 12.332 1.644 18.453-.425 8.816-3.005 17.349-10.092 24.123-21.515zm-48.301 2.012-9.47-35.377c-6.293 11.169-8.248 21.77-6.719 30.756 1.135 6.719 4.252 12.586 8.986 17.094zm27.07-69.025 4.053 15.137 11.906-20.665c-5.5 1.305-10.857 3.147-15.959 5.528zm16.979 22.593 15.137-4.054c-.51-5.613-1.586-11.197-3.203-16.611zm99.724 17.008-29.195-13.153c-1.078-.397-1.105-.397-1.645.624l-13.125 29.197c-.17.369 0 .851.396 1.021l29.17 13.153c1.076.396 1.105.396 1.643-.624l13.125-29.197c.199-.369 0-.851-.369-1.021zm-23.471-26.987 29.624 13.323c3.939 1.786 6.803 5.018 8.248 8.816 1.418 3.771 1.418 8.079-.367 12.019l-13.325 29.594c-1.785 3.968-5.018 6.832-8.814 8.277-3.742 1.417-8.051 1.417-12.02-.369l-29.594-13.323c-3.969-1.786-6.832-5.017-8.277-8.816-1.418-3.77-1.418-8.079.369-12.018l13.322-29.594c1.785-3.969 5.018-6.831 8.816-8.277 3.969-1.502 8.164-1.332 12.018.368zm-142.611 128.355 36.227-16.328c4.422-1.984 9.24-1.984 13.463-.397 4.225 1.615 7.854 4.818 9.838 9.241l16.326 36.228c1.984 4.422 1.984 9.241.398 13.465-1.617 4.224-4.82 7.852-9.242 9.837l-36.227 16.327c-4.422 1.985-9.24 1.985-13.466.397-4.223-1.616-7.852-4.819-9.836-9.241l-16.328-36.228c-1.984-4.422-1.984-9.241-.396-13.464 1.616-4.224 4.819-7.852 9.243-9.837zm42.377-2.664-36.227 16.328c-1.332.595-1.928 2.154-1.332 3.487l16.327 36.227c.596 1.332 2.156 1.928 3.488 1.332l36.227-16.327c1.332-.596 1.928-2.154 1.332-3.487l-16.328-36.228c-.596-1.332-2.154-1.928-3.487-1.332zm108.058-15.024c18.624 12.699 30.444 31.72 34.499 52.243 3.855 19.503-.143 46.688-12.813 62.448-12.7 18.653-31.722 30.445-52.243 34.499-20.693 4.082-42.976.255-61.911-12.444-3.43-2.295-4.336-6.945-2.041-10.375 27.865-41.556 55.731-83.112 83.595-124.669 2.439-3.658 7.512-4.424 10.914-1.702zm19.786 55.106c-2.892-14.684-10.63-28.375-22.677-38.552l-8.277 12.388c8.701 7.824 14.344 18.085 16.498 29.056 2.607 13.238.17 27.468-7.967 39.601-8.022 11.735-19.672 19.672-33.676 22.422-10.912 2.154-22.563.851-33.108-4.224l-8.277 12.36c13.975 7.285 29.595 9.212 44.278 6.321 36.623-7.201 60.435-42.748 53.206-79.372zm-66.473 50.939-3.684-18.681-10.603 15.817c4.621 1.9 9.468 2.836 14.287 2.864zm16.47-48.7 18.652-3.685c-1.844-4.451-4.537-8.589-8.051-12.133zm21.571 11.027-18.68 3.685 15.818 10.602c1.899-4.621 2.834-9.468 2.862-14.287z"/></g></svg>