<svg id="Capa_1" enable-background="new 0 0 512 512" height="512" viewBox="0 0 512 512" width="512" xmlns="http://www.w3.org/2000/svg"><g><g><g><g><g><g><g><g><g><path d="m58.13 459.538 106.814 39.758c9.072 3.377 18.674 5.106 28.353 5.106h110.08c15.405 0 30.493-4.378 43.505-12.623l137.83-87.337c9.093-8.075 10.779-21.645 3.938-31.698-7.485-11.001-19.868-12.913-33.494-6.47l-134.191 59.086.158-21.772c-1.777-17.87-15.536-32.212-33.318-34.728l-81.719-9.409c-18.851-2.667-28.271-8.984-44.704-18.598-22.436-13.125-47.961-20.042-73.954-20.042h-29.298z" fill="#ffece3"/></g><g fill="#ffddce"><path d="m311.104 381.157-.004.525.347-.153c-.112-.125-.229-.247-.343-.372z"/><path d="m488.65 372.742c-3.951-5.806-9.985-9.35-16.426-10.314l-135.206 85.675c-13.012 8.246-28.1 12.623-43.505 12.623h-110.08c-9.68 0-19.282-1.729-28.353-5.106l-96.95-36.086v40.004l106.814 39.758c9.072 3.377 18.674 5.106 28.353 5.106h110.08c15.405 0 30.493-4.378 43.505-12.623l137.83-87.337c9.093-8.076 10.779-21.646 3.938-31.7z"/></g></g></g><path d="m81.114 480.814c0 7.75-6.282 14.032-14.032 14.032h-33.868c-7.75 0-14.032-6.283-14.032-14.032v-171.825c0-7.75 6.282-14.032 14.032-14.032h33.867c7.75 0 14.032 6.283 14.032 14.032v171.825z" fill="#7ba0b0"/><path d="m67.081 452.324h-33.867c-7.75 0-14.032-6.283-14.032-14.032v42.522c0 7.75 6.283 14.032 14.032 14.032h33.867c7.75 0 14.032-6.282 14.032-14.032v-42.522c.001 7.75-6.282 14.032-14.032 14.032z" fill="#688b96"/></g><g><g><g><path d="m343.663 173.54-36.676-62.575c-2.057-3.509-1.512-7.96 1.33-10.87l11.683-11.962c3.15-3.225 3.437-8.28.672-11.841l-32.858-42.319c-3.193-4.112-9.405-4.112-12.598 0l-32.858 42.319c-2.765 3.561-2.478 8.616.672 11.841l11.683 11.962c2.842 2.91 3.386 7.361 1.33 10.87l-36.676 62.575c-2.903 4.953-9.633 5.973-13.873 2.101l-79.897-72.96c-5.471-4.996-13.788 1.328-10.437 7.935l74.17 146.217h184.368l74.17-146.217c3.352-6.608-4.965-12.932-10.437-7.935l-79.896 72.96c-4.24 3.872-10.969 2.853-13.872-2.101z" fill="#fbe77b"/></g><g><path d="m437.431 102.681-51.013 46.585-54.565 107.568h41.845l74.17-146.217c3.352-6.608-4.965-12.932-10.437-7.936z" fill="#fcdd2e"/></g><g><g><circle cx="441.573" cy="104.73" fill="#fcb143" r="25.553"/></g><g><circle cx="121.455" cy="104.73" fill="#fcb143" r="25.553"/></g></g></g><path d="m376.361 292.89h-189.693c-11.321 0-20.498-9.177-20.498-20.498 0-11.321 9.177-20.498 20.498-20.498h189.693c11.321 0 20.498 9.177 20.498 20.498-.001 11.321-9.178 20.498-20.498 20.498z" fill="#fbbe66"/><path d="m376.361 251.895h-42.522c11.321 0 20.498 9.177 20.498 20.498v20.498h22.024c11.321 0 20.498-9.177 20.498-20.497-.001-11.322-9.178-20.499-20.498-20.499z" fill="#fcb143"/></g></g></g></g></g><g><path d="m44.536 182.603h8.093v8.093c0 4.197 3.402 7.599 7.599 7.599s7.599-3.402 7.599-7.599v-8.093h8.093c4.197 0 7.599-3.402 7.599-7.599s-3.402-7.599-7.599-7.599h-8.093v-8.093c0-4.197-3.402-7.599-7.599-7.599s-7.599 3.402-7.599 7.599v8.093h-8.093c-4.197 0-7.599 3.402-7.599 7.599s3.402 7.599 7.599 7.599z"/><path d="m474.725 221.112c0-4.197-3.402-7.599-7.599-7.599s-7.599 3.402-7.599 7.599v8.094h-8.093c-4.197 0-7.599 3.402-7.599 7.599s3.402 7.599 7.599 7.599h8.093v8.093c0 4.197 3.402 7.599 7.599 7.599s7.599-3.402 7.599-7.599v-8.093h8.093c4.197 0 7.599-3.402 7.599-7.599s-3.402-7.599-7.599-7.599h-8.093z"/><path d="m351.983 30.889h8.093v8.093c0 4.197 3.402 7.599 7.599 7.599s7.599-3.402 7.599-7.599v-8.093h8.093c4.197 0 7.599-3.402 7.599-7.599s-3.402-7.599-7.599-7.599h-8.093v-8.092c0-4.197-3.402-7.599-7.599-7.599s-7.599 3.402-7.599 7.599v8.093h-8.093c-4.197 0-7.599 3.402-7.599 7.599s3.402 7.598 7.599 7.598z"/><path d="m120.457 137.856 55.146 108.714c-10.007 4.304-17.033 14.257-17.033 25.823 0 15.493 12.604 28.097 28.096 28.097h189.693c15.492 0 28.096-12.605 28.096-28.097 0-11.566-7.026-21.518-17.032-25.822l16.841-33.2c1.899-3.742.404-8.315-3.339-10.214-3.74-1.898-8.315-.405-10.215 3.339l-19.175 37.801h-180.044l-55.648-109.703c2.825-1.366 5.426-3.125 7.736-5.2l56.789 51.86c7.8 7.124 20.199 5.265 25.553-3.87l36.675-62.574c3.778-6.445 2.771-14.678-2.448-20.021l-11.683-11.962c-.495-.507-.541-1.312-.106-1.872l32.858-42.319c.042-.054.113-.145.296-.145s.254.091.297.145l32.858 42.319c.435.56.389 1.364-.106 1.872l-11.682 11.959c-5.219 5.345-6.226 13.578-2.449 20.021l36.676 62.576c5.344 9.115 17.735 11.006 25.552 3.869l56.79-51.859c2.311 2.075 4.911 3.833 7.736 5.2l-19.879 39.19c-1.899 3.742-.404 8.315 3.339 10.214 3.737 1.896 8.312.41 10.215-3.339l21.712-42.802c17.819-.531 32.154-15.181 32.154-33.126 0-18.28-14.872-33.152-33.152-33.152s-33.152 14.872-33.152 33.152c0 4.257.815 8.325 2.284 12.067l-58.294 53.233c-.663.607-1.727.462-2.192-.331l-36.676-62.576c-.324-.553-.237-1.26.21-1.718l11.683-11.961c5.771-5.91 6.303-15.287 1.237-21.811l-32.857-42.319c-2.972-3.827-7.455-6.023-12.301-6.023s-9.329 2.196-12.301 6.023l-32.858 42.319c-5.065 6.525-4.533 15.901 1.238 21.811l11.684 11.963c.447.457.533 1.164.209 1.717l-36.675 62.574c-.464.793-1.526.941-2.193.332l-58.294-53.234c1.468-3.743 2.283-7.81 2.283-12.067 0-18.28-14.872-33.152-33.152-33.152s-33.154 14.873-33.154 33.153c0 17.945 14.335 32.595 32.154 33.126zm321.116-51.081c9.9 0 17.954 8.054 17.954 17.954 0 9.899-8.054 17.953-17.954 17.953s-17.954-8.054-17.954-17.953c0-9.9 8.054-17.954 17.954-17.954zm-65.212 198.517h-189.694c-7.112 0-12.898-5.786-12.898-12.899 0-7.112 5.786-12.898 12.898-12.898h.135c.01 0 .019.002.029.002.011 0 .023-.002.034-.002h189.298c.011 0 .023.002.034.002.01 0 .019-.002.029-.002h.134c7.112 0 12.898 5.786 12.898 12.898.001 7.112-5.785 12.899-12.897 12.899zm-254.906-198.517c9.9 0 17.954 8.054 17.954 17.954 0 9.899-8.054 17.953-17.954 17.953s-17.954-8.054-17.954-17.953c0-9.9 8.054-17.954 17.954-17.954z"/><path d="m494.932 368.468c-9.463-13.908-25.505-17.308-42.929-9.111l-123.355 54.315.073-10.03c.002-.27-.01-.539-.037-.807-2.13-21.419-18.503-38.484-39.815-41.5-.065-.01-.13-.018-.195-.026l-81.62-9.396c-17.242-2.456-25.669-8.159-41.836-17.62-23.207-13.576-49.635-20.835-76.507-21.06v-4.243c0-11.928-9.704-21.631-21.631-21.631h-33.866c-11.927 0-21.631 9.703-21.631 21.631v24.536c0 4.197 3.402 7.599 7.599 7.599s7.599-3.402 7.599-7.599v-24.536c0-3.547 2.886-6.433 6.433-6.433h33.867c3.547 0 6.433 2.886 6.433 6.433v171.824c0 3.547-2.886 6.433-6.433 6.433h-33.867c-3.547 0-6.433-2.886-6.433-6.433v-110.607c0-4.197-3.402-7.599-7.599-7.599s-7.599 3.402-7.599 7.599v110.607c0 11.928 9.704 21.631 21.631 21.631h33.867c11.927 0 21.631-9.703 21.631-21.631v-1.784l73.58 27.387c9.952 3.705 20.384 5.583 31.005 5.583h110.08c16.872 0 33.323-4.773 47.572-13.804l137.83-87.337c.346-.219.673-.465.979-.736 11.911-10.578 14.136-28.486 5.174-41.655zm-14.856 29.914-137.262 86.977c-11.813 7.486-25.45 11.443-39.437 11.443h-110.08c-8.805 0-17.453-1.557-25.703-4.629l-78.882-29.361v-134.381c24.178.225 47.953 6.766 68.834 18.98 16.882 9.873 27.161 16.688 47.477 19.563.065.01.13.018.195.026l81.616 9.396c14.185 2.049 25.101 13.344 26.687 27.562l-.1 13.802h-75.896c-4.197 0-7.599 3.402-7.599 7.599s3.402 7.599 7.599 7.599h83.44c.97 0 2.058-.208 3.033-.633.01-.004.019-.006.029-.011l134.191-59.086c.062-.028.125-.056.186-.085 7.361-3.482 17.493-5.635 23.963 3.876 4.573 6.718 3.566 15.801-2.291 21.363z"/></g></g></svg>