<svg id="Capa_1" enable-background="new 0 0 516.939 516.939" height="512" viewBox="0 0 516.939 516.939" width="512" xmlns="http://www.w3.org/2000/svg"><g><g><path d="m49.378 7.5h374.18v483.17h-374.18z" fill="#87523e"/><path d="m397.668 7.5h25.89v483.17h-25.89z" fill="#7c4b37"/><path d="m81.748 37.88h309.44v422.41h-309.44z" fill="#fff9df"/><path d="m362.518 37.88h28.67v422.41h-28.67z" fill="#fff0ad"/><path d="m391.188 352.83v107.46h-309.44v-107.46c16.36-12.38 34.53-21.92 53.73-28.37 7.7-2.58 15.56-4.67 23.54-6.23l77.4 12.103 77.4-12.123c27.93 5.48 54.42 17.26 77.37 34.62z" fill="#ffd15b"/><path d="m270.478 260.8v53.87l-33.394 7.551-34.616-7.551v-53.87z" fill="#ffcebf"/><path d="m270.478 260.8v53.87l-15.656 3.54-10.244-3.54v-53.87z" fill="#ffb09e"/><path d="m302.778 155.01v63.16c0 35.19-28.52 63.71-63.71 63.71h-5.2c-3.52 0-6.98-.29-10.34-.84-30.27-4.94-53.37-31.2-53.37-62.87v-63.16l60.63-6.01z" fill="#ffcebf"/><path d="m302.778 155.01v63.16c0 35.19-28.52 63.71-63.71 63.71h-5.2c-3.52 0-6.98-.29-10.34-.84 30.27-4.94 53.36-31.21 53.36-62.87v-63.16l14.89-6.01z" fill="#ffb09e"/><path d="m313.818 318.21-77.35 76.81-77.45-76.79c11.92-2.36 24.11-3.56 36.41-3.56h82.08c12.26 0 24.42 1.2 36.31 3.54z" fill="#ddeafb"/><path d="m313.818 318.21-77.35 76.81-18.49-18.34 62.42-61.99c11.28.18 22.46 1.36 33.42 3.52z" fill="#cbe2ff"/><path d="m170.161 218.172h-6.35c-12.143 0-21.987-9.844-21.987-21.987 0-12.143 9.844-21.987 21.987-21.987h6.35l3.948 23.879z" fill="#ffcebf"/><path d="m309.128 218.172h-6.35l-3.989-20.095 3.989-23.879h6.35c12.143 0 21.987 9.844 21.987 21.987-.001 12.143-9.844 21.987-21.987 21.987z" fill="#ffb09e"/><path d="m302.778 131.77v23.24h-132.62v-27.23c0-10.79 8.75-19.54 19.54-19.54h17.38c10.24 0 20.19-3.39 28.3-9.64 3.66-2.82 7.73-4.99 12.05-6.46.19-.06.37-.12.56-.18 4.15-1.34 8.51-2.05 12.93-2.05 11.56 0 22.03 4.69 29.6 12.26s12.26 18.04 12.26 29.6z" fill="#87523e"/><path d="m302.778 131.77v23.24h-25.89v-23.24c0-11.56-4.68-22.03-12.26-29.6-4.61-4.61-10.29-8.15-16.64-10.21 4.15-1.34 8.51-2.05 12.93-2.05 11.56 0 22.03 4.69 29.6 12.26s12.26 18.04 12.26 29.6z" fill="#7c4b37"/><g fill="#fe646f"><path d="m467.628 469.683h-41.29v39.817l-120.42-116.123 41.29-39.817z"/><path d="m185.498 469.683h41.29v39.817l120.42-116.123-41.29-39.817z"/><path d="m372.268 419.93c-15.66 15.66-37.35 21.6-57.58 17.82-12.38-2.31-24.22-8.25-33.79-17.82-25.23-25.23-25.23-66.14 0-91.37 9.57-9.58 21.41-15.52 33.79-17.82 20.23-3.78 41.92 2.16 57.58 17.82 25.23 25.23 25.23 66.14 0 91.37z"/></g><path d="m372.268 419.93c-15.66 15.66-37.35 21.6-57.58 17.82 12.37-2.31 24.2-8.25 33.77-17.82 25.24-25.23 25.24-66.14 0-91.37-9.57-9.58-21.4-15.51-33.77-17.82 20.23-3.78 41.92 2.16 57.58 17.82 25.23 25.23 25.23 66.14 0 91.37z" fill="#fd4755"/><path d="m354.368 374.25c0 15.34-12.44 27.79-27.79 27.79-3.83 0-7.48-.78-10.8-2.18-9.99-4.22-16.99-14.1-16.99-25.61 0-11.52 7-21.4 16.99-25.61 3.32-1.4 6.97-2.18 10.8-2.18 15.35 0 27.79 12.44 27.79 27.79z" fill="#ffd15b"/><path d="m354.368 374.25c0 15.34-12.44 27.79-27.79 27.79-3.83 0-7.48-.78-10.8-2.18 9.99-4.22 16.99-14.1 16.99-25.61 0-11.52-7-21.4-16.99-25.61 3.32-1.4 6.97-2.18 10.8-2.18 15.35 0 27.79 12.44 27.79 27.79z" fill="#ffc344"/></g><g><path d="m472.834 464.285-41.776-40.285v-416.5c0-4.143-3.357-7.5-7.5-7.5h-374.18c-4.143 0-7.5 3.357-7.5 7.5v483.17c0 4.143 3.357 7.5 7.5 7.5h169.91v11.33c0 6.466 8.05 9.889 12.706 5.398l17.348-16.729h114.767c4.143 0 7.5-3.357 7.5-7.5s-3.357-7.5-7.5-7.5h-99.211l15.949-15.38h91.435l48.852 47.108c4.653 4.487 12.706 1.072 12.706-5.398v-32.316h33.789c6.591.001 9.953-8.318 5.205-12.898zm-415.956 18.885v-468.17h359.181v394.534l-17.37-16.751v-354.903c0-4.143-3.357-7.5-7.5-7.5h-309.441c-4.143 0-7.5 3.357-7.5 7.5v276.81c0 4.143 3.357 7.5 7.5 7.5s7.5-3.357 7.5-7.5v-269.31h294.44v284.856c-20.048-25.905-56.024-35.139-86.062-22.008-6.518-.672-13.113-1.031-19.653-1.047v-29.413c17.462-11.438 29.623-30.322 31.908-52.114 15.911-.403 28.732-13.461 28.732-29.467 0-15.874-12.609-28.851-28.337-29.458v-34.959c0-40.063-47.529-63.706-79.472-39.108-12.179 9.377-26.708 8.077-41.104 8.077-14.91 0-27.041 12.131-27.041 27.042v38.948c-15.728.607-28.337 13.584-28.337 29.458 0 16.008 12.824 29.068 28.738 29.467 2.25 21.197 13.963 40.437 31.903 52.163v29.363c-42.179.103-84.1 14.222-117.739 39.667-1.85 1.399-2.976 3.663-2.976 5.981v107.462c0 1.989.79 3.896 2.196 5.304 1.407 1.406 3.314 2.196 5.304 2.196h96.511c-1.218 4.657 2.425 9.394 7.239 9.394h33.79v5.986zm289.235-55.233c-20.193 8.196-44.809 1.797-59.914-13.309-22.267-22.266-22.267-58.496 0-80.762 21.978-21.98 58.784-21.98 80.763 0 22.267 22.266 22.267 58.496 0 80.762-6.001 6.001-13.103 10.496-20.849 13.309zm-122.365 34.247h-19.668l57.91-55.844c2.039 4.094 4.474 8.001 7.292 11.674zm-31.536-9.394h-102.964l.002-96.183c20.125-14.572 43.198-24.828 67.387-30.17l74.551 73.907c1.462 1.449 3.371 2.174 5.28 2.174s3.818-.725 5.28-2.174l13.803-13.683c.245 1.419.528 2.827.856 4.223zm118.065-271.047c7.453.588 13.337 6.841 13.337 14.442s-5.884 13.854-13.337 14.441zm-15-34.238h-117.616v-19.726c0-6.64 5.401-12.042 12.041-12.042 17.945 0 35.137.448 50.255-11.192 22.225-17.115 55.32-.668 55.32 27.224zm-117.616 15h117.616v55.667c0 30.992-25.215 56.207-56.207 56.207-4.143 0-7.5 3.357-7.5 7.5s3.357 7.5 7.5 7.5c8.383 0 16.427-1.467 23.903-4.14v21.935h-53.009v-33.561c0-2.665-1.486-5.21-3.802-6.524-17.581-9.981-28.502-28.725-28.502-48.917v-55.667zm17.772 159.669h81.3c-12.142 11.626-19.94 27.254-21.797 43.978l-18.467 18.306-61.614-61.082c6.821-.791 13.693-1.202 20.578-1.202zm-32.772-111.547c-7.453-.588-13.337-6.84-13.337-14.441s5.884-13.854 13.337-14.442zm71.627 280.062c0-.006.001-.013.001-.019s-.001-.013-.001-.019v-17.793l45.301-43.944c3.632 3.126 7.501 5.832 11.549 8.115l-56.849 54.82v-1.16zm62.113-37.899 9.751-9.403c13.258 3.893 27.57 3.895 40.829.007l9.744 9.396zm65.601-15.749c4.055-2.285 7.931-4.995 11.569-8.126l45.268 43.941v18.993zm67.378 25.143-45.502-44.168c2.813-3.667 5.245-7.567 7.282-11.654l57.885 55.822z"/><path d="m236.468 216.912c4.143 0 7.5-3.357 7.5-7.5v-11.335c0-4.143-3.357-7.5-7.5-7.5s-7.5 3.357-7.5 7.5v11.335c0 4.143 3.358 7.5 7.5 7.5z"/><path d="m236.468 250.916c8.381 0 16.39-4.006 21.424-10.717 2.485-3.313 1.813-8.015-1.5-10.5-3.312-2.484-8.014-1.814-10.5 1.5-2.248 2.997-5.684 4.717-9.424 4.717-3.333 0-6.412-1.354-8.67-3.811-2.805-3.051-7.546-3.248-10.598-.447-3.05 2.803-3.25 7.548-.447 10.598 5.059 5.504 12.245 8.66 19.715 8.66z"/><path d="m326.581 338.958c-19.459 0-35.29 15.831-35.29 35.289 0 19.202 16.088 35.289 35.29 35.289s35.289-16.087 35.289-35.289c0-19.458-15.831-35.289-35.289-35.289zm0 55.578c-11.188 0-20.29-9.102-20.29-20.289s9.103-20.289 20.29-20.289 20.289 9.102 20.289 20.289-9.102 20.289-20.289 20.289z"/></g></g></svg>